HIERARCHY
ROOT Hips
{
	OFFSET 0.000000 0.000000 0.000000
	CHANNELS 6 Xposition Yposition Zposition Zrotation Yrotation Xrotation 
	JOINT LHipJoint
	{
		OFFSET 0.000000 0.000000 0.000000
		CHANNELS 3 Zrotation Yrotation Xrotation
		JOINT LeftUpLeg
		{
			OFFSET 1.363060 -1.794630 0.839290
			CHANNELS 3 Zrotation Yrotation Xrotation
			JOINT LeftLeg
			{
				OFFSET 2.448110 -6.726130 0.000000
				CHANNELS 3 Zrotation Yrotation Xrotation
				JOINT LeftFoot
				{
					OFFSET 2.562200 -7.039590 0.000000
					CHANNELS 3 Zrotation Yrotation Xrotation
					JOINT LeftToeBase
					{
						OFFSET 0.157640 -0.433110 2.322550
						CHANNELS 3 Zrotation Yrotation Xrotation
						End Site
						{
							OFFSET 0.000000 0.000000 0.000000
						}
					}
				}
			}
		}
	}
	JOINT RHipJoint
	{
		OFFSET 0.000000 0.000000 0.000000
		CHANNELS 3 Zrotation Yrotation Xrotation
		JOINT RightUpLeg
		{
			OFFSET -1.305520 -1.794630 0.839290
			CHANNELS 3 Zrotation Yrotation Xrotation
			JOINT RightLeg
			{
				OFFSET -2.542530 -6.985550 0.000000
				CHANNELS 3 Zrotation Yrotation Xrotation
				JOINT RightFoot
				{
					OFFSET -2.568260 -7.056230 0.000000
					CHANNELS 3 Zrotation Yrotation Xrotation
					JOINT RightToeBase
					{
						OFFSET -0.164730 -0.452590 2.363150
						CHANNELS 3 Zrotation Yrotation Xrotation
						End Site
						{
							OFFSET 0.000000 0.000000 0.000000
						}
					}
				}
			}
		}
	}
}
MOTION
Frames: 16
Frame Time: 0.008333
3.000708 17.168304 -0.132858 -179.155732 -71.301774 -174.335267 -11.681290 2.259233 -0.792975 -1.476341 25.654978 -10.013474 -1.524559 -0.500954 8.415967 2.932863 21.465518 -1.488834 2.491300 -0.000000 -42.026400 9.134438 -2.132518 5.220922 2.918554 11.068668 -16.126802 1.529821 -0.690130 20.279897 -0.974984 -3.800333 -5.190401 -0.482600 0.000000 -63.007200
2.979596 17.171312 -0.128853 -178.762110 -69.549498 -174.685360 -11.735947 2.338520 -0.909326 -1.344728 26.869649 -9.686658 -1.567217 -0.523452 8.003896 2.965966 21.854641 -1.335774 2.591501 -0.000000 -41.962701 9.083547 -2.174080 5.505236 2.848277 11.831708 -16.352417 1.603451 -0.657433 19.908905 -0.794383 -2.900664 -4.790091 -0.444300 0.000001 -63.665800
2.956827 17.174879 -0.124568 -178.418182 -67.793905 -174.972773 -11.797198 2.422325 -1.011882 -1.217964 28.077911 -9.369262 -1.611989 -0.549517 7.561324 2.996749 22.241296 -1.160233 2.702699 0.000000 -41.895900 9.026781 -2.221466 5.790505 2.779679 12.533430 -16.579974 1.685530 -0.618650 19.469613 -0.604983 -1.947624 -4.343304 -0.395100 0.000000 -64.416600
2.932604 17.178946 -0.120143 -178.114861 -66.050666 -175.203886 -11.865476 2.508564 -1.098891 -1.100341 29.268332 -9.074602 -1.658639 -0.579038 7.102161 3.025183 22.621581 -0.970705 2.821500 0.000000 -41.815500 8.962656 -2.275307 6.077809 2.713962 13.179546 -16.813475 1.774950 -0.574319 18.968811 -0.410536 -0.956946 -3.854161 -0.333700 -0.000000 -65.234300
2.907570 17.183465 -0.115510 -177.850608 -64.325422 -175.391497 -11.941599 2.597915 -1.175597 -0.987196 30.441171 -8.786109 -1.706951 -0.610092 6.623766 3.050314 22.990994 -0.760696 2.949700 0.000000 -41.738900 8.891917 -2.332097 6.357983 2.653899 13.762134 -17.030935 1.871346 -0.524517 18.407496 -0.212256 0.068682 -3.326052 -0.257699 0.000000 -66.121000
2.881925 17.188399 -0.110729 -177.612005 -62.637083 -175.544317 -12.025246 2.687128 -1.242255 -0.879216 31.591086 -8.522897 -1.757701 -0.641997 6.147686 3.070960 23.335569 -0.544113 3.079400 -0.000000 -41.645300 8.812912 -2.392034 6.633962 2.602278 14.300010 -17.234783 1.972830 -0.469737 17.793176 -0.016135 1.098668 -2.765564 -0.167800 -0.000001 -67.027800
2.856371 17.193733 -0.105565 -177.401063 -60.993857 -175.671444 -12.116031 2.777240 -1.302679 -0.772670 32.703992 -8.262624 -1.808814 -0.673089 5.662877 3.088326 23.663786 -0.310684 3.216300 -0.000001 -41.562200 8.727745 -2.450312 6.895395 2.560819 14.785547 -17.402653 2.078591 -0.409946 17.127354 0.176401 2.127134 -2.177362 -0.063000 -0.000000 -67.954001
2.831014 17.199480 -0.100019 -177.202669 -59.414664 -175.780351 -12.212793 2.864708 -1.359080 -0.666242 33.786807 -8.031763 -1.862980 -0.702121 5.198929 3.099554 23.948671 -0.079601 3.347300 -0.000000 -41.462700 8.634799 -2.506972 7.148322 2.531128 15.249765 -17.538181 2.186146 -0.345353 16.417344 0.358337 3.111512 -1.570541 0.052500 0.000000 -68.836200
2.806382 17.205604 -0.093828 -177.021155 -57.906940 -175.875341 -12.314314 2.951482 -1.412305 -0.559457 34.811600 -7.802904 -1.916091 -0.728292 4.732923 3.108222 24.214037 0.164235 3.483101 0.000000 -41.381000 8.537424 -2.557042 7.382425 2.512415 15.682197 -17.622171 2.294594 -0.275778 15.664469 0.529282 4.047758 -0.949385 0.178199 -0.000000 -69.679300
2.782473 17.212084 -0.087069 -176.843213 -56.487234 -175.959514 -12.418647 3.033972 -1.465795 -0.451868 35.801112 -7.613686 -1.973413 -0.750018 4.304153 3.109449 24.418269 0.395892 3.604100 0.000000 -41.288300 8.433964 -2.601186 7.607925 2.502373 16.122055 -17.665429 2.401271 -0.201229 14.876287 0.682639 4.887631 -0.325229 0.306400 0.000000 -70.416400
2.759713 17.218879 -0.079432 -176.677106 -55.160360 -176.033094 -12.524092 3.114961 -1.517134 -0.347834 36.716731 -7.432851 -2.028928 -0.767647 3.878467 3.108953 24.599988 0.634122 3.726200 -0.000000 -41.217800 8.328776 -2.635136 7.814695 2.498185 16.551492 -17.655121 2.505586 -0.121799 14.055653 0.820052 5.636192 0.299368 0.435600 0.000000 -71.065400
2.737925 17.225912 -0.071181 -176.513818 -53.937349 -176.093112 -12.628295 3.192210 -1.568038 -0.251267 37.580065 -7.294909 -2.087480 -0.780257 3.487500 3.102681 24.725229 0.859437 3.833300 0.000000 -41.158300 8.221083 -2.660471 8.013503 2.493576 17.002834 -17.607671 2.605304 -0.037657 13.210981 0.937333 6.255509 0.913886 0.557000 -0.000000 -71.577100
2.717257 17.233104 -0.062300 -176.356196 -52.822607 -176.137084 -12.729091 3.266562 -1.616405 -0.169039 38.376476 -7.195994 -2.147051 -0.788306 3.121235 3.092809 24.807113 1.076159 3.929400 0.000000 -41.123900 8.113545 -2.676498 8.203188 2.483408 17.472651 -17.527302 2.699512 0.050585 12.349833 1.035242 6.742580 1.513666 0.666500 0.000000 -71.953200
2.697720 17.240329 -0.052866 -176.202599 -51.820417 -176.164599 -12.824627 3.337965 -1.662138 -0.104514 39.113709 -7.144735 -2.208990 -0.791839 2.787280 3.078242 24.836222 1.278088 4.009300 -0.000001 -41.110500 8.007683 -2.684315 8.385878 2.464515 17.959818 -17.423270 2.787694 0.142327 11.480258 1.114430 7.094539 2.093584 0.759500 -0.000000 -72.194101
2.679423 17.247442 -0.043106 -176.052551 -50.934267 -176.175056 -12.912468 3.405549 -1.705666 -0.061018 39.805427 -7.155259 -2.275579 -0.790839 2.498992 3.056963 24.797499 1.458066 4.065700 -0.000000 -41.119100 7.904967 -2.685905 8.565418 2.433151 18.466278 -17.308054 2.869035 0.236427 10.612908 1.175294 7.308649 2.648282 0.831200 -0.000001 -72.297300
2.662581 17.254421 -0.032936 -175.914353 -50.165383 -176.166170 -12.990949 3.472067 -1.738025 -0.050684 40.394781 -7.192577 -2.336734 -0.788396 2.210333 3.038057 24.755227 1.636967 4.123000 -0.000000 -41.173400 7.810977 -2.680915 8.731362 2.388666 18.951453 -17.183641 2.943569 0.331125 9.759912 1.222608 7.421952 3.177092 0.885100 0.000000 -72.302100
